<svg xmlns="http://www.w3.org/2000/svg" viewBox="-37 -43 74 74" width="64" height="64"><style>@keyframes s{0%{}20%,to{transform:rotateY(180deg)}}</style><g style="animation:s 10s infinite linear"><path stroke="#f80" stroke-width="3" fill="#fc0" transform="rotate(45 0 0)" d="M-6-6h28a30 30 0 0 1 18.386 6.787l-11.316 11.316a12.2 12.2 0 0 0-16.97 16.97l-11.316 11.316a30 30 0 01-6.787-18.386ZM7-17v-16a18 18 0 0 1 16 16ZM-7-33h-16a18 18 0 0 0 16 16ZM-33-7v-16a18 18 0 0 1 16 16ZM-17 7h-16a18 18 0 0 0 16 16Z"/></g></svg>